<svg version="1.1" id="Layer_1" xmlns="http://www.w3.org/2000/svg" xmlns:xlink="http://www.w3.org/1999/xlink" x="0px" y="0px"
	 width="100%" viewBox="0 0 1920 1080" enable-background="new 0 0 1920 1080" xml:space="preserve">
<path fill="#012340" opacity="1.000000" stroke="none" 
	d="
M1073.000000,1081.000000 
	C715.333374,1081.000000 358.166809,1081.000000 1.000144,1081.000000 
	C1.000096,721.000122 1.000096,361.000244 1.000048,1.000289 
	C640.999756,1.000192 1280.999512,1.000192 1920.999512,1.000096 
	C1920.999634,360.999664 1920.999634,720.999329 1920.999756,1080.999512 
	C1638.500000,1081.000000 1356.000000,1081.000000 1073.000000,1081.000000 
M1573.092163,776.585876 
	C1586.097290,759.961975 1594.871826,741.195862 1600.946899,721.109863 
	C1640.124390,591.578308 1679.262573,462.034821 1718.408936,332.493805 
	C1718.917236,330.812042 1719.364380,329.111786 1719.905396,327.188202 
	C1718.496216,327.029297 1717.680298,326.857178 1716.864380,326.856812 
	C1679.537476,326.839783 1642.210449,326.882050 1604.883911,326.762390 
	C1601.343140,326.751038 1600.496826,328.369720 1599.835205,331.361389 
	C1584.956421,398.650787 1569.991333,465.921051 1555.039185,533.194153 
	C1552.284058,545.590210 1549.514893,557.983093 1546.752319,570.377441 
	C1545.125977,568.388611 1544.528687,566.376343 1543.974731,564.352173 
	C1522.748779,486.807495 1501.495605,409.270203 1480.399414,331.690186 
	C1479.369629,327.903564 1477.828125,326.735596 1473.971191,326.748413 
	C1433.645142,326.882538 1393.318726,326.827301 1352.992310,326.846222 
	C1351.430054,326.846954 1349.867798,327.066071 1347.883911,327.215118 
	C1348.654297,329.508301 1349.192505,331.230347 1349.807373,332.924591 
	C1390.977051,446.369720 1432.116211,559.825928 1473.432007,673.217773 
	C1475.579834,679.112488 1476.074707,684.640259 1474.933716,690.716919 
	C1470.183228,716.018250 1454.905518,728.877991 1429.267700,727.948975 
	C1420.517944,727.631836 1411.730225,726.113647 1403.140137,724.293884 
	C1395.075439,722.585388 1387.248535,719.754150 1378.988159,717.320007 
	C1378.777832,718.649658 1378.452026,719.752319 1378.451050,720.855164 
	C1378.423584,754.682678 1378.453491,788.510193 1378.380615,822.337524 
	C1378.374512,825.177124 1379.534668,826.355469 1382.112671,827.292480 
	C1412.076660,838.183533 1442.632690,841.864746 1474.225220,835.976440 
	C1514.355713,828.496826 1547.484131,809.531555 1573.092163,776.585876 
M241.399582,631.108887 
	C274.551941,665.892639 316.464325,681.935669 363.131348,686.792786 
	C384.000763,688.964783 405.045044,687.982483 425.940948,685.102173 
	C473.022827,678.612244 512.911987,658.521667 543.966370,622.242310 
	C551.778015,613.116333 557.984680,602.616516 565.254211,592.285828 
	C563.135376,591.352112 562.442993,590.946289 561.695618,590.732178 
	C527.612915,580.966675 493.518646,571.241394 459.451538,561.421753 
	C456.749329,560.642883 455.646240,561.490723 454.544220,563.905884 
	C450.778564,572.158386 444.938599,578.803101 437.139709,583.352295 
	C412.969147,597.451294 387.748138,600.544800 361.526703,589.493652 
	C342.119965,581.314575 330.103058,563.311646 330.534241,542.836792 
	C332.792511,542.836792 335.072998,542.836792 337.353485,542.836792 
	C415.169983,542.836731 492.986481,542.836792 570.802979,542.836182 
	C572.302612,542.836182 573.974548,543.245667 575.256714,542.715759 
	C576.733704,542.105225 578.777649,540.817139 578.992981,539.553650 
	C579.993103,533.684937 580.832764,527.734009 581.006165,521.791443 
	C581.295044,511.889740 581.424072,501.950684 580.888672,492.066986 
	C580.369873,482.489807 579.637390,472.821625 577.770691,463.437744 
	C569.546997,422.098358 549.776611,387.482574 516.503967,361.082489 
	C481.073517,332.970337 439.879547,321.530975 395.465454,320.246674 
	C382.555817,319.873352 369.545685,320.831970 356.664154,322.051697 
	C324.695709,325.078552 295.384033,335.824921 268.961639,354.102325 
	C220.700119,387.486694 199.530899,435.821838 194.281006,492.287537 
	C193.019318,505.857788 194.412979,519.839294 195.963150,533.475037 
	C200.195251,570.702148 215.506134,603.039490 241.399582,631.108887 
M818.601562,421.927216 
	C829.677612,434.387634 829.695862,449.369385 828.671387,465.312225 
	C825.585876,464.149902 822.998535,463.154083 820.396362,462.198303 
	C798.144165,454.024933 775.046631,452.553467 751.587891,452.914001 
	C719.617981,453.405396 689.490051,460.532471 661.976746,477.006714 
	C622.731873,500.505341 597.867737,543.111023 606.722534,593.231873 
	C611.313782,619.219849 623.477539,641.029602 643.767639,657.670288 
	C676.190613,684.261597 713.538025,692.767822 754.639526,685.455750 
	C788.964600,679.349121 816.962708,662.078979 840.314331,636.684570 
	C843.308167,633.428955 846.172729,630.054626 849.615784,626.146667 
	C850.555908,630.554321 851.280029,634.104492 852.072388,637.639404 
	C858.013611,664.146240 874.119263,680.285767 900.959900,685.330994 
	C914.906128,687.952576 928.923401,689.068970 943.096375,687.082214 
	C956.942322,685.141296 970.820862,683.431946 984.690002,681.659302 
	C987.278076,681.328491 988.289062,680.106445 988.283142,677.395264 
	C988.209534,643.896606 988.218567,610.397766 988.264709,576.898987 
	C988.268311,574.271790 987.461731,573.229797 984.646240,572.815063 
	C966.299927,570.112915 958.670776,564.313599 957.921326,545.682556 
	C957.158325,526.712769 957.737183,507.692749 957.260010,488.706512 
	C956.838562,471.936279 957.018311,455.011719 954.752441,438.453613 
	C948.430420,392.255371 924.091614,358.708069 881.404968,339.021729 
	C857.202515,327.859924 831.546326,322.417633 805.130859,321.073761 
	C788.266907,320.215820 771.256287,320.138245 754.418091,321.281860 
	C708.276245,324.415771 665.308228,338.082062 625.684631,362.140350 
	C622.003601,364.375397 621.467285,366.101959 623.287537,369.935394 
	C634.357727,393.249542 645.169250,416.686523 656.082825,440.075134 
	C656.699097,441.395721 657.454773,442.651245 658.213684,444.063873 
	C666.683716,439.092529 674.765869,434.159973 683.021423,429.537018 
	C713.874817,412.259857 746.722900,403.512939 782.276672,407.023651 
	C795.552063,408.334503 808.286804,411.330231 818.601562,421.927216 
M1163.802368,551.682129 
	C1173.390869,554.473755 1183.162720,556.768188 1192.508789,560.216919 
	C1199.768677,562.895874 1207.053833,566.228088 1213.335327,570.672607 
	C1223.517212,577.876648 1221.965088,588.848328 1210.671021,594.207764 
	C1208.884766,595.055359 1206.944458,595.662537 1205.012085,596.104309 
	C1190.682861,599.380493 1176.082031,599.004822 1161.882202,596.642761 
	C1134.065674,592.015503 1107.091187,584.049194 1081.429810,572.082520 
	C1072.109131,567.736023 1062.814331,563.333862 1053.010132,558.723022 
	C1036.676514,587.517883 1020.449524,616.124939 1003.832703,645.419250 
	C1010.892212,648.742065 1017.366211,652.074280 1024.057373,654.890564 
	C1056.968872,668.742798 1091.534424,676.370361 1126.636230,682.014221 
	C1158.150879,687.081177 1189.769043,689.722778 1221.607666,685.958496 
	C1244.937378,683.200195 1267.439453,677.342590 1287.944702,665.428101 
	C1335.152466,637.998291 1348.710449,595.271057 1341.349365,548.446472 
	C1338.189819,528.347717 1326.932861,512.974060 1310.879761,500.847321 
	C1292.408691,486.893799 1271.510742,477.794800 1249.616699,471.122864 
	C1224.791138,463.557556 1199.571777,457.288818 1174.718018,449.810333 
	C1165.399292,447.006348 1156.100098,443.282928 1147.738647,438.368073 
	C1137.201172,432.174042 1138.270264,417.974518 1149.250366,412.481720 
	C1153.766113,410.222809 1158.976562,408.569427 1163.982300,408.215363 
	C1181.201172,406.997711 1198.491211,407.887787 1214.851440,413.562653 
	C1236.051392,420.916321 1256.817749,429.520813 1277.763306,437.606110 
	C1279.887817,438.426208 1281.961182,439.379059 1284.329834,440.385712 
	C1300.789429,413.113007 1316.995361,386.260468 1333.436035,359.019043 
	C1328.323486,356.743286 1323.971680,354.698425 1319.538330,352.849030 
	C1269.216431,331.857239 1217.656982,317.374634 1162.262695,319.778625 
	C1135.753784,320.929047 1110.837280,326.842102 1087.516724,339.026337 
	C1064.538086,351.031952 1046.267090,368.235565 1034.390259,391.609009 
	C1025.238403,409.619873 1021.106445,428.796448 1022.069702,448.992310 
	C1022.899536,466.392670 1027.803833,482.353699 1039.476929,495.722626 
	C1048.598022,506.168854 1059.833008,513.886169 1072.062988,520.173645 
	C1100.864258,534.980530 1131.931885,543.246887 1163.802368,551.682129 
M1165.215698,820.000305 
	C1168.770508,820.528076 1169.756836,818.870911 1169.729248,815.472717 
	C1169.599487,799.480347 1169.664307,783.486206 1169.694580,767.492798 
	C1169.697754,765.835510 1169.931274,764.178650 1170.155396,761.246460 
	C1172.277344,763.789917 1173.460938,765.162231 1174.594727,766.574585 
	C1188.046753,783.332153 1201.468506,800.114319 1214.982300,816.821960 
	C1216.042725,818.132935 1217.654663,819.681824 1219.141235,819.833008 
	C1223.219116,820.247681 1227.366821,819.975952 1231.704834,819.975952 
	C1231.704834,788.737610 1231.704834,758.059021 1231.704834,727.312683 
	C1225.701904,727.312683 1220.130859,727.312683 1213.836426,727.312683 
	C1213.836426,747.127808 1213.836426,766.602905 1213.836426,787.335327 
	C1211.852051,784.968811 1210.767700,783.733582 1209.745972,782.448547 
	C1196.891602,766.279907 1183.544067,750.468567 1171.423584,733.766846 
	C1165.874268,726.120056 1159.592285,726.173767 1151.863770,727.382446 
	C1151.863770,758.243103 1151.863770,788.940613 1151.863770,820.001770 
	C1156.311646,820.001770 1160.294800,820.001770 1165.215698,820.000305 
M1296.605713,792.552917 
	C1289.325439,772.184631 1282.091797,751.799255 1274.682129,731.478027 
	C1274.045166,729.730896 1272.358398,727.238281 1270.958862,727.098572 
	C1265.730225,726.576538 1260.418213,726.889893 1254.393066,726.889893 
	C1255.260254,729.496460 1255.790039,731.369629 1256.497559,733.172913 
	C1266.645996,759.042114 1276.725220,784.939087 1287.028320,810.746643 
	C1291.593750,822.182190 1288.154419,819.538208 1300.600342,820.088989 
	C1304.532715,820.263000 1306.418091,819.071838 1307.866089,815.283875 
	C1318.441772,787.617798 1329.281982,760.052795 1340.025879,732.450867 
	C1340.663574,730.812500 1341.189087,729.130432 1341.981323,726.851868 
	C1336.792358,726.851868 1332.300659,727.090515 1327.847900,726.777161 
	C1324.209473,726.521179 1322.642822,727.952698 1321.481445,731.321716 
	C1314.758057,750.826965 1307.803955,770.252808 1300.913574,789.700378 
	C1300.229004,791.632507 1299.445923,793.529663 1298.390137,796.269714 
	C1297.569702,794.636963 1297.215698,793.932312 1296.605713,792.552917 
M1102.123291,811.414429 
	C1102.123291,814.163757 1102.123291,816.913086 1102.123291,819.626953 
	C1108.591553,819.626953 1114.168091,819.626953 1120.269897,819.626953 
	C1120.269897,817.294250 1120.269897,815.331116 1120.269897,813.368042 
	C1120.270142,791.070740 1120.271484,768.773438 1120.269531,746.476135 
	C1120.269043,741.151428 1120.400635,735.819885 1120.143799,730.507324 
	C1120.084473,729.280945 1118.741089,727.144226 1117.881470,727.088928 
	C1112.818604,726.762817 1107.724121,726.928406 1102.123291,726.928406 
	C1102.123291,755.265015 1102.123291,782.849548 1102.123291,811.414429 
z"/>
<path fill="#04D939" opacity="1.000000" stroke="none" 
	d="
M1572.885010,776.875122 
	C1547.484131,809.531555 1514.355713,828.496826 1474.225220,835.976440 
	C1442.632690,841.864746 1412.076660,838.183533 1382.112671,827.292480 
	C1379.534668,826.355469 1378.374512,825.177124 1378.380615,822.337524 
	C1378.453491,788.510193 1378.423584,754.682678 1378.451050,720.855164 
	C1378.452026,719.752319 1378.777832,718.649658 1378.988159,717.320007 
	C1387.248535,719.754150 1395.075439,722.585388 1403.140137,724.293884 
	C1411.730225,726.113647 1420.517944,727.631836 1429.267700,727.948975 
	C1454.905518,728.877991 1470.183228,716.018250 1474.933716,690.716919 
	C1476.074707,684.640259 1475.579834,679.112488 1473.432007,673.217773 
	C1432.116211,559.825928 1390.977051,446.369720 1349.807373,332.924591 
	C1349.192505,331.230347 1348.654297,329.508301 1347.883911,327.215118 
	C1349.867798,327.066071 1351.430054,326.846954 1352.992310,326.846222 
	C1393.318726,326.827301 1433.645142,326.882538 1473.971191,326.748413 
	C1477.828125,326.735596 1479.369629,327.903564 1480.399414,331.690186 
	C1501.495605,409.270203 1522.748779,486.807495 1543.974731,564.352173 
	C1544.528687,566.376343 1545.125977,568.388611 1546.752319,570.377441 
	C1549.514893,557.983093 1552.284058,545.590210 1555.039185,533.194153 
	C1569.991333,465.921051 1584.956421,398.650787 1599.835205,331.361389 
	C1600.496826,328.369720 1601.343140,326.751038 1604.883911,326.762390 
	C1642.210449,326.882050 1679.537476,326.839783 1716.864380,326.856812 
	C1717.680298,326.857178 1718.496216,327.029297 1719.905396,327.188202 
	C1719.364380,329.111786 1718.917236,330.812042 1718.408936,332.493805 
	C1679.262573,462.034821 1640.124390,591.578308 1600.946899,721.109863 
	C1594.871826,741.195862 1586.097290,759.961975 1572.885010,776.875122 
z"/>
<path fill="#04D939" opacity="1.000000" stroke="none" 
	d="
M241.160904,630.843994 
	C215.506134,603.039490 200.195251,570.702148 195.963150,533.475037 
	C194.412979,519.839294 193.019318,505.857788 194.281006,492.287537 
	C199.530899,435.821838 220.700119,387.486694 268.961639,354.102325 
	C295.384033,335.824921 324.695709,325.078552 356.664154,322.051697 
	C369.545685,320.831970 382.555817,319.873352 395.465454,320.246674 
	C439.879547,321.530975 481.073517,332.970337 516.503967,361.082489 
	C549.776611,387.482574 569.546997,422.098358 577.770691,463.437744 
	C579.637390,472.821625 580.369873,482.489807 580.888672,492.066986 
	C581.424072,501.950684 581.295044,511.889740 581.006165,521.791443 
	C580.832764,527.734009 579.993103,533.684937 578.992981,539.553650 
	C578.777649,540.817139 576.733704,542.105225 575.256714,542.715759 
	C573.974548,543.245667 572.302612,542.836182 570.802979,542.836182 
	C492.986481,542.836792 415.169983,542.836731 337.353485,542.836792 
	C335.072998,542.836792 332.792511,542.836792 330.534241,542.836792 
	C330.103058,563.311646 342.119965,581.314575 361.526703,589.493652 
	C387.748138,600.544800 412.969147,597.451294 437.139709,583.352295 
	C444.938599,578.803101 450.778564,572.158386 454.544220,563.905884 
	C455.646240,561.490723 456.749329,560.642883 459.451538,561.421753 
	C493.518646,571.241394 527.612915,580.966675 561.695618,590.732178 
	C562.442993,590.946289 563.135376,591.352112 565.254211,592.285828 
	C557.984680,602.616516 551.778015,613.116333 543.966370,622.242310 
	C512.911987,658.521667 473.022827,678.612244 425.940948,685.102173 
	C405.045044,687.982483 384.000763,688.964783 363.131348,686.792786 
	C316.464325,681.935669 274.551941,665.892639 241.160904,630.843994 
M443.079193,465.820709 
	C443.330933,464.155792 444.064240,462.397644 443.762756,460.839783 
	C438.603638,434.179779 421.457031,414.081390 393.088379,411.413330 
	C373.248840,409.547394 355.641785,414.430359 342.215973,430.024963 
	C333.515625,440.130798 329.109924,452.117706 327.696716,465.953217 
	C366.251953,465.953217 404.202698,465.953217 443.079193,465.820709 
z"/>
<path fill="#04D939" opacity="1.000000" stroke="none" 
	d="
M818.356079,421.665283 
	C808.286804,411.330231 795.552063,408.334503 782.276672,407.023651 
	C746.722900,403.512939 713.874817,412.259857 683.021423,429.537018 
	C674.765869,434.159973 666.683716,439.092529 658.213684,444.063873 
	C657.454773,442.651245 656.699097,441.395721 656.082825,440.075134 
	C645.169250,416.686523 634.357727,393.249542 623.287537,369.935394 
	C621.467285,366.101959 622.003601,364.375397 625.684631,362.140350 
	C665.308228,338.082062 708.276245,324.415771 754.418091,321.281860 
	C771.256287,320.138245 788.266907,320.215820 805.130859,321.073761 
	C831.546326,322.417633 857.202515,327.859924 881.404968,339.021729 
	C924.091614,358.708069 948.430420,392.255371 954.752441,438.453613 
	C957.018311,455.011719 956.838562,471.936279 957.260010,488.706512 
	C957.737183,507.692749 957.158325,526.712769 957.921326,545.682556 
	C958.670776,564.313599 966.299927,570.112915 984.646240,572.815063 
	C987.461731,573.229797 988.268311,574.271790 988.264709,576.898987 
	C988.218567,610.397766 988.209534,643.896606 988.283142,677.395264 
	C988.289062,680.106445 987.278076,681.328491 984.690002,681.659302 
	C970.820862,683.431946 956.942322,685.141296 943.096375,687.082214 
	C928.923401,689.068970 914.906128,687.952576 900.959900,685.330994 
	C874.119263,680.285767 858.013611,664.146240 852.072388,637.639404 
	C851.280029,634.104492 850.555908,630.554321 849.615784,626.146667 
	C846.172729,630.054626 843.308167,633.428955 840.314331,636.684570 
	C816.962708,662.078979 788.964600,679.349121 754.639526,685.455750 
	C713.538025,692.767822 676.190613,684.261597 643.767639,657.670288 
	C623.477539,641.029602 611.313782,619.219849 606.722534,593.231873 
	C597.867737,543.111023 622.731873,500.505341 661.976746,477.006714 
	C689.490051,460.532471 719.617981,453.405396 751.587891,452.914001 
	C775.046631,452.553467 798.144165,454.024933 820.396362,462.198303 
	C822.998535,463.154083 825.585876,464.149902 828.671387,465.312225 
	C829.695862,449.369385 829.677612,434.387634 818.356079,421.665283 
M811.207214,526.276794 
	C803.328003,525.168701 795.443848,524.094727 787.570679,522.945251 
	C771.462891,520.593567 756.471741,523.597534 742.812439,532.497437 
	C730.463806,540.543335 724.250427,551.810791 726.053101,566.761780 
	C727.640503,579.927429 735.915100,587.893311 747.639893,592.477051 
	C764.438232,599.044312 781.138123,596.443115 797.319031,590.240601 
	C821.026245,581.152954 829.336548,569.758789 829.336670,547.941895 
	C829.336731,530.331970 829.336731,530.331970 811.207214,526.276794 
z"/>
<path fill="#04D939" opacity="1.000000" stroke="none" 
	d="
M1163.411865,551.553162 
	C1131.931885,543.246887 1100.864258,534.980530 1072.062988,520.173645 
	C1059.833008,513.886169 1048.598022,506.168854 1039.476929,495.722626 
	C1027.803833,482.353699 1022.899536,466.392670 1022.069702,448.992310 
	C1021.106445,428.796448 1025.238403,409.619873 1034.390259,391.609009 
	C1046.267090,368.235565 1064.538086,351.031952 1087.516724,339.026337 
	C1110.837280,326.842102 1135.753784,320.929047 1162.262695,319.778625 
	C1217.656982,317.374634 1269.216431,331.857239 1319.538330,352.849030 
	C1323.971680,354.698425 1328.323486,356.743286 1333.436035,359.019043 
	C1316.995361,386.260468 1300.789429,413.113007 1284.329834,440.385712 
	C1281.961182,439.379059 1279.887817,438.426208 1277.763306,437.606110 
	C1256.817749,429.520813 1236.051392,420.916321 1214.851440,413.562653 
	C1198.491211,407.887787 1181.201172,406.997711 1163.982300,408.215363 
	C1158.976562,408.569427 1153.766113,410.222809 1149.250366,412.481720 
	C1138.270264,417.974518 1137.201172,432.174042 1147.738647,438.368073 
	C1156.100098,443.282928 1165.399292,447.006348 1174.718018,449.810333 
	C1199.571777,457.288818 1224.791138,463.557556 1249.616699,471.122864 
	C1271.510742,477.794800 1292.408691,486.893799 1310.879761,500.847321 
	C1326.932861,512.974060 1338.189819,528.347717 1341.349365,548.446472 
	C1348.710449,595.271057 1335.152466,637.998291 1287.944702,665.428101 
	C1267.439453,677.342590 1244.937378,683.200195 1221.607666,685.958496 
	C1189.769043,689.722778 1158.150879,687.081177 1126.636230,682.014221 
	C1091.534424,676.370361 1056.968872,668.742798 1024.057373,654.890564 
	C1017.366211,652.074280 1010.892212,648.742065 1003.832703,645.419250 
	C1020.449524,616.124939 1036.676514,587.517883 1053.010132,558.723022 
	C1062.814331,563.333862 1072.109131,567.736023 1081.429810,572.082520 
	C1107.091187,584.049194 1134.065674,592.015503 1161.882202,596.642761 
	C1176.082031,599.004822 1190.682861,599.380493 1205.012085,596.104309 
	C1206.944458,595.662537 1208.884766,595.055359 1210.671021,594.207764 
	C1221.965088,588.848328 1223.517212,577.876648 1213.335327,570.672607 
	C1207.053833,566.228088 1199.768677,562.895874 1192.508789,560.216919 
	C1183.162720,556.768188 1173.390869,554.473755 1163.411865,551.553162 
z"/>
<path fill="#04D839" opacity="1.000000" stroke="none" 
	d="
M1164.746826,820.001038 
	C1160.294800,820.001770 1156.311646,820.001770 1151.863770,820.001770 
	C1151.863770,788.940613 1151.863770,758.243103 1151.863770,727.382446 
	C1159.592285,726.173767 1165.874268,726.120056 1171.423584,733.766846 
	C1183.544067,750.468567 1196.891602,766.279907 1209.745972,782.448547 
	C1210.767700,783.733582 1211.852051,784.968811 1213.836426,787.335327 
	C1213.836426,766.602905 1213.836426,747.127808 1213.836426,727.312683 
	C1220.130859,727.312683 1225.701904,727.312683 1231.704834,727.312683 
	C1231.704834,758.059021 1231.704834,788.737610 1231.704834,819.975952 
	C1227.366821,819.975952 1223.219116,820.247681 1219.141235,819.833008 
	C1217.654663,819.681824 1216.042725,818.132935 1214.982300,816.821960 
	C1201.468506,800.114319 1188.046753,783.332153 1174.594727,766.574585 
	C1173.460938,765.162231 1172.277344,763.789917 1170.155396,761.246460 
	C1169.931274,764.178650 1169.697754,765.835510 1169.694580,767.492798 
	C1169.664307,783.486206 1169.599487,799.480347 1169.729248,815.472717 
	C1169.756836,818.870911 1168.770508,820.528076 1164.746826,820.001038 
z"/>
<path fill="#04D639" opacity="1.000000" stroke="none" 
	d="
M1296.733643,792.890259 
	C1297.215698,793.932312 1297.569702,794.636963 1298.390137,796.269714 
	C1299.445923,793.529663 1300.229004,791.632507 1300.913574,789.700378 
	C1307.803955,770.252808 1314.758057,750.826965 1321.481445,731.321716 
	C1322.642822,727.952698 1324.209473,726.521179 1327.847900,726.777161 
	C1332.300659,727.090515 1336.792358,726.851868 1341.981323,726.851868 
	C1341.189087,729.130432 1340.663574,730.812500 1340.025879,732.450867 
	C1329.281982,760.052795 1318.441772,787.617798 1307.866089,815.283875 
	C1306.418091,819.071838 1304.532715,820.263000 1300.600342,820.088989 
	C1288.154419,819.538208 1291.593750,822.182190 1287.028320,810.746643 
	C1276.725220,784.939087 1266.645996,759.042114 1256.497559,733.172913 
	C1255.790039,731.369629 1255.260254,729.496460 1254.393066,726.889893 
	C1260.418213,726.889893 1265.730225,726.576538 1270.958862,727.098572 
	C1272.358398,727.238281 1274.045166,729.730896 1274.682129,731.478027 
	C1282.091797,751.799255 1289.325439,772.184631 1296.733643,792.890259 
z"/>
<path fill="#04D939" opacity="1.000000" stroke="none" 
	d="
M1102.123291,810.924255 
	C1102.123291,782.849548 1102.123291,755.265015 1102.123291,726.928406 
	C1107.724121,726.928406 1112.818604,726.762817 1117.881470,727.088928 
	C1118.741089,727.144226 1120.084473,729.280945 1120.143799,730.507324 
	C1120.400635,735.819885 1120.269043,741.151428 1120.269531,746.476135 
	C1120.271484,768.773438 1120.270142,791.070740 1120.269897,813.368042 
	C1120.269897,815.331116 1120.269897,817.294250 1120.269897,819.626953 
	C1114.168091,819.626953 1108.591553,819.626953 1102.123291,819.626953 
	C1102.123291,816.913086 1102.123291,814.163757 1102.123291,810.924255 
z"/>
<path fill="#012440" opacity="1.000000" stroke="none" 
	d="
M442.616333,465.886963 
	C404.202698,465.953217 366.251953,465.953217 327.696716,465.953217 
	C329.109924,452.117706 333.515625,440.130798 342.215973,430.024963 
	C355.641785,414.430359 373.248840,409.547394 393.088379,411.413330 
	C421.457031,414.081390 438.603638,434.179779 443.762756,460.839783 
	C444.064240,462.397644 443.330933,464.155792 442.616333,465.886963 
z"/>
<path fill="#012440" opacity="1.000000" stroke="none" 
	d="
M811.607056,526.392578 
	C829.336731,530.331970 829.336731,530.331970 829.336670,547.941895 
	C829.336548,569.758789 821.026245,581.152954 797.319031,590.240601 
	C781.138123,596.443115 764.438232,599.044312 747.639893,592.477051 
	C735.915100,587.893311 727.640503,579.927429 726.053101,566.761780 
	C724.250427,551.810791 730.463806,540.543335 742.812439,532.497437 
	C756.471741,523.597534 771.462891,520.593567 787.570679,522.945251 
	C795.443848,524.094727 803.328003,525.168701 811.607056,526.392578 
z"/>
</svg>